<svg width="36" height="36" viewBox="0 0 36 36" fill="none" xmlns="http://www.w3.org/2000/svg">
<g id="svg">
<path id="Vector" d="M17.8667 35.1626C16.6125 35.1626 15.4167 34.9244 14.2792 34.448L8.87847 32.0855C6.91782 31.243 4.87778 30.7196 2.75833 30.5154L0.979167 30.3112C0.82037 30.3112 0.695602 30.2545 0.604861 30.1411C0.51412 30.0277 0.46875 29.9013 0.46875 29.7619V24.1911C0.46875 24.0777 0.502778 23.9642 0.570833 23.8508C0.661574 23.5786 1.43125 22.8835 2.87986 21.7654C4.32523 20.6473 6.2794 20.2601 8.74236 20.6036C10.1067 20.9212 11.3252 21.3198 12.3979 21.7994C13.4674 22.2791 14.344 22.7457 15.0278 23.1994C16.0324 23.8152 17.1488 24.123 18.3771 24.123H23.7778C24.2574 24.123 24.6852 24.2365 25.0611 24.4633C25.437 24.6934 25.7498 24.9899 25.9993 25.3529L30.6514 20.0203C31.1051 19.4078 31.6738 18.9298 32.3576 18.5862C33.0414 18.246 33.7706 18.0758 34.5451 18.0758H34.8854C35.0928 18.0758 35.2532 18.1601 35.3667 18.3286C35.4801 18.5004 35.5028 18.677 35.4347 18.8585L31.2299 28.43C30.7502 29.48 30.0729 30.3744 29.1979 31.1133C28.3197 31.8555 27.3231 32.3626 26.2083 32.6348L25.4889 32.839L21.1819 34.5501C20.1093 34.9811 19.0042 35.1853 17.8667 35.1626ZM1.59653 24.3953V29.2515C1.66458 29.2515 1.88171 29.2629 2.24792 29.2855L2.86042 29.3536C5.11597 29.5805 7.28079 30.1508 9.35486 31.0647L14.7556 33.3883C15.7116 33.7967 16.7081 34.0122 17.7451 34.0348C18.7822 34.0575 19.7803 33.8761 20.7396 33.4904L25.0806 31.7453L25.9312 31.5411C26.8905 31.2916 27.7396 30.8524 28.4785 30.2237C29.2206 29.5983 29.7845 28.8416 30.1701 27.9536L34.0007 19.2376C33.4984 19.3284 33.0366 19.4985 32.6153 19.748C32.194 20.0008 31.8229 20.3314 31.5021 20.7397L26.3785 26.6508V26.7237C26.3558 27.4529 26.0981 28.0622 25.6056 28.5515C25.1162 29.0409 24.5069 29.2969 23.7778 29.3196H16.2576C15.2789 29.3196 14.3229 29.4784 13.3896 29.796L13.1854 29.2515L12.9764 28.7022H13.0104C14.0604 28.3619 15.1428 28.1918 16.2576 28.1918H23.7778C24.1894 28.1691 24.5312 28.02 24.8035 27.7446C25.0789 27.4723 25.2167 27.1321 25.2167 26.7237C25.2167 26.3122 25.0789 25.9703 24.8035 25.698C24.5312 25.4226 24.1894 25.2848 23.7778 25.2848H18.3771C16.9414 25.2622 15.6208 24.8862 14.4153 24.1571C13.7769 23.7487 12.9569 23.3161 11.9556 22.8592C10.9509 22.4022 9.79884 22.0263 8.49931 21.7314C6.63264 21.4365 5.09491 21.6925 3.88611 22.4994C2.67731 23.3096 1.91412 23.9416 1.59653 24.3953ZM22.9271 17.9397C22.0586 17.9397 21.0782 17.6659 19.9861 17.1182C19.85 17.0501 19.7479 16.9464 19.6799 16.8071C19.6086 16.671 19.5049 16.0568 19.3687 14.9647C19.2326 13.8693 19.5292 12.7416 20.2583 11.5814C21.4444 10.0096 23.6433 9.30313 26.8549 9.46193C26.991 9.48462 27.1109 9.54619 27.2146 9.64665C27.3183 9.75036 27.3701 9.87026 27.3701 10.0064C27.4609 10.3045 27.3977 11.3367 27.1806 13.1029C26.9634 14.8691 26.2051 16.2869 24.9056 17.3564C24.3157 17.7453 23.6562 17.9397 22.9271 17.9397ZM20.7056 16.1946C22.2093 16.9011 23.4051 16.9691 24.2931 16.3987C25.0676 15.8057 25.591 14.9112 25.8632 13.7154C26.1387 12.5196 26.265 11.4777 26.2424 10.5897C23.734 10.5443 22.0472 11.1017 21.1819 12.2619C20.7023 12.9911 20.4738 13.7429 20.4965 14.5175C20.5192 15.292 20.5889 15.8511 20.7056 16.1946ZM14.2111 10.4536C13.7088 10.4763 13.1789 10.4131 12.6215 10.264C12.0609 10.1149 11.5197 9.85892 10.9979 9.49596C9.28681 8.21911 8.4993 5.83716 8.63542 2.35012C8.66134 2.19133 8.72454 2.06008 8.825 1.95637C8.9287 1.85591 9.04861 1.80568 9.18472 1.80568C9.50231 1.71494 10.6301 1.77651 12.5681 1.9904C14.506 2.20753 16.0664 3.02258 17.2493 4.43554C18.1632 5.80313 18.0838 7.58068 17.0111 9.76818C16.9431 9.90429 16.841 9.99503 16.7049 10.0404C16.6595 10.0858 16.4035 10.1668 15.9368 10.2835C15.4701 10.3969 14.8949 10.4536 14.2111 10.4536ZM9.76805 2.93346C9.71944 5.7367 10.3562 7.61633 11.6785 8.57235C12.5211 9.12003 13.3701 9.37119 14.2257 9.32582C15.0812 9.28045 15.7019 9.18809 16.0875 9.04874C16.862 7.36355 16.9301 6.03161 16.2917 5.0529C15.6111 4.18762 14.5984 3.60591 13.2535 3.30776C11.9086 3.01286 10.7468 2.88809 9.76805 2.93346ZM18.6542 25.0807C18.6542 25.0807 18.6428 25.0807 18.6201 25.0807C18.4581 25.058 18.3269 24.9899 18.2264 24.8765C18.1227 24.7631 18.0822 24.6254 18.1049 24.4633C18.1275 23.8055 18.1843 23.1686 18.275 22.5529C18.5051 20.2973 18.3009 17.4487 17.6625 14.0071C17.0241 10.5654 15.2806 8.07003 12.4319 6.52096C12.2958 6.4529 12.1986 6.35082 12.1403 6.21471C12.0852 6.0786 12.0852 5.936 12.1403 5.78693C12.1986 5.63786 12.3007 5.53577 12.4465 5.48068C12.5956 5.42235 12.7382 5.42721 12.8743 5.49526C14.6535 6.2698 16.0778 7.58554 17.1472 9.44249C18.2199 11.2994 18.9264 13.6522 19.2667 16.5008C19.312 17.0258 19.3574 17.5281 19.4028 18.0078C20.2454 16.0698 21.1058 14.6844 21.984 13.8515C22.8623 13.0219 23.3694 12.5957 23.5056 12.573C23.6417 12.505 23.7843 12.4936 23.9333 12.539C24.0824 12.5844 24.1958 12.6751 24.2736 12.8112C24.3546 12.9473 24.3725 13.0899 24.3271 13.239C24.2817 13.3848 24.191 13.4934 24.0549 13.5647C23.8928 13.5388 23.2252 14.2048 22.0521 15.5626C20.8789 16.9173 19.9958 19.27 19.4028 22.621C19.3574 23.1913 19.3234 23.6467 19.3007 23.9869L19.2326 24.5703C19.21 24.7291 19.1468 24.8538 19.0431 24.9446C18.9426 25.0353 18.813 25.0807 18.6542 25.0807Z" fill="#514AE1"/>
</g>
</svg>
