<svg width="36" height="36" viewBox="0 0 36 36" fill="none" xmlns="http://www.w3.org/2000/svg">
<g id="svg">
<path id="Vector" d="M34.867 17.9398C34.7536 17.9398 34.2642 17.9398 33.399 17.9398H31.9309C32.524 16.5496 32.8432 15.2954 32.8885 14.1773C32.9339 13.0625 32.8189 12.1162 32.5434 11.3384C32.1351 9.92872 31.286 8.64701 29.9962 7.49331C28.7096 6.34284 27.0633 5.73358 25.0573 5.66553C24.0105 5.66553 22.9411 5.87131 21.849 6.28289C20.8897 6.62317 20.0973 6.96506 19.4719 7.30858C18.8464 7.64886 18.3959 7.9227 18.1205 8.13011C17.8483 7.9227 17.3978 7.64886 16.7691 7.30858C16.1436 6.96506 15.3529 6.62317 14.3969 6.28289C13.2788 5.87131 12.1964 5.66553 11.1497 5.66553C9.14363 5.73358 7.5022 6.34284 6.22535 7.49331C4.95174 8.64701 4.0978 9.92872 3.66354 11.3384C3.414 12.1616 3.32326 13.1824 3.39132 14.4009C3.45937 15.6195 3.86933 17.0033 4.62118 18.5523H1.03368C0.871644 18.5523 0.740394 18.6042 0.639931 18.7079C0.536227 18.8084 0.484375 18.9331 0.484375 19.0822C0.484375 19.2313 0.536227 19.356 0.639931 19.4565C0.740394 19.5602 0.871644 19.6121 1.03368 19.6121H5.23368C5.39572 19.907 5.6015 20.2035 5.85104 20.5016C7.789 23.1202 10.1078 25.4956 12.8073 27.628C15.5068 29.7572 17.3006 30.9708 18.1885 31.269C18.1885 31.2917 18.2112 31.2917 18.2566 31.269H18.3587V31.235C19.1332 30.8688 20.8314 29.6891 23.4531 27.6961C26.0749 25.703 28.4325 23.2935 30.526 20.4676C30.8922 19.9653 31.2001 19.463 31.4497 18.9607H34.9399C35.0987 18.9607 35.2284 18.9104 35.3288 18.81C35.4325 18.7063 35.4844 18.5799 35.4844 18.4308C35.4844 18.285 35.4212 18.1667 35.2948 18.0759C35.1716 17.9852 35.0291 17.9398 34.867 17.9398ZM29.5733 19.9183C27.6353 22.5401 25.464 24.7729 23.0594 26.6169C20.6547 28.4641 19.0198 29.6276 18.1545 30.1072C17.2666 29.6276 15.6203 28.4593 13.2156 26.6023C10.811 24.7454 8.64132 22.5174 6.7066 19.9183L6.50243 19.6121H11.3878C11.6147 19.6121 11.7848 19.51 11.8983 19.3058L14.1198 14.9308L17.6101 23.8509C17.6554 23.9644 17.7235 24.0502 17.8142 24.1086C17.905 24.1637 18.0071 24.1912 18.1205 24.1912C18.1205 24.1912 18.1318 24.1912 18.1545 24.1912C18.4073 24.1685 18.5677 24.0324 18.6358 23.7829L21.708 13.3218L23.351 18.6204C23.4191 18.8246 23.5617 18.938 23.7788 18.9607C23.9959 18.9834 24.1726 18.9153 24.3087 18.7565L25.6066 16.8461L26.7003 18.7225C26.8138 18.8813 26.9726 18.9607 27.1767 18.9607H30.1517C29.9476 19.3042 29.7547 19.6234 29.5733 19.9183ZM30.7691 17.9398C30.633 17.9398 30.0853 17.9398 29.126 17.9398H27.4878L26.117 15.6114C26.0263 15.4299 25.8788 15.3391 25.6747 15.3391C25.4705 15.3391 25.3117 15.4185 25.1983 15.5773L24.0705 17.2544L22.2573 11.2704C22.1439 11.0435 21.9608 10.9301 21.708 10.9301C21.4584 10.9301 21.277 11.0435 21.1635 11.2704L18.0865 21.9697L14.7372 13.3898C14.6464 13.1857 14.4876 13.0787 14.2608 13.069C14.0307 13.056 13.8589 13.1516 13.7455 13.3558L11.1156 18.5183H5.85104C4.50613 16.0586 4.14155 13.769 4.75729 11.6496C5.09757 10.4181 5.82025 9.31298 6.92535 8.33428C8.03044 7.35233 9.44988 6.82733 11.1837 6.75928C12.1397 6.78196 13.0957 6.96506 14.0517 7.30858C15.2832 7.76229 16.2117 8.18844 16.8372 8.58706C17.4659 8.98891 17.7916 9.20118 17.8142 9.22386C18.0411 9.38266 18.2679 9.38266 18.4948 9.22386C18.4948 9.20118 18.8091 8.98891 19.4378 8.58706C20.0633 8.18844 21.0031 7.76229 22.2573 7.30858C23.2133 6.94238 24.1596 6.75928 25.0962 6.75928C26.8267 6.82733 28.2446 7.35233 29.3497 8.33428C30.4547 9.31298 31.1888 10.4181 31.5517 11.6496C32.0994 13.607 31.8385 15.7037 30.7691 17.9398Z" fill="#514AE1"/>
</g>
</svg>
