<svg width="36" height="36" viewBox="0 0 36 36" fill="none" xmlns="http://www.w3.org/2000/svg">
<g id="svg">
<path id="Vector" d="M26.5144 14.999C26.5824 14.999 26.9243 14.9764 27.5401 14.931L28.5658 14.8629C29.3176 14.7949 30.0014 14.5777 30.6171 14.2115C31.2296 13.8486 31.753 13.3592 32.1873 12.7435L33.7915 10.3858C34.4979 9.33585 34.9889 8.20807 35.2644 7.00252C35.5366 5.79372 35.5593 4.56224 35.3324 3.30807C35.2644 2.80576 35.0359 2.38446 34.647 2.04418C34.2614 1.70391 33.8174 1.5208 33.3151 1.49488C32.0382 1.44951 30.8197 1.62613 29.6595 2.02474C28.4961 2.42659 27.4364 3.04881 26.4803 3.89141L24.3269 5.76779C23.7565 6.27011 23.3287 6.85182 23.0435 7.51293C22.7583 8.17405 22.6271 8.88053 22.6498 9.63238L22.7519 11.6838C22.7746 12.0921 22.7178 12.4842 22.5817 12.8602C22.4456 13.2361 22.2414 13.5618 21.9692 13.8372L4.97964 31.3032C4.52594 31.7796 4.31043 32.3824 4.33312 33.1115C4.3558 33.5231 4.44654 33.9055 4.60534 34.2588C4.76413 34.612 4.99099 34.9134 5.28589 35.1629C5.83358 35.6426 6.47201 35.8824 7.20117 35.8824H7.43937C8.14585 35.8143 8.72756 35.5178 9.18451 34.9928L24.4289 16.0588C24.7012 15.7379 25.0139 15.4868 25.3671 15.3053C25.7204 15.1238 26.1028 15.0217 26.5144 14.999ZM23.6414 15.4074C23.003 16.1819 20.4509 19.3384 15.9852 24.8768L8.36298 34.3463C8.11344 34.6185 7.77154 34.7773 7.33728 34.8227C6.81552 34.8453 6.36668 34.6914 5.99075 34.3609C5.61483 34.0303 5.41552 33.6025 5.39284 33.0775C5.36691 32.6465 5.48034 32.2933 5.73312 32.0178L22.7178 14.5858C23.1067 14.1775 23.3919 13.7222 23.5734 13.2199C23.7549 12.7208 23.8343 12.1861 23.8116 11.6157L23.7095 9.56432C23.6868 8.99395 23.7905 8.44627 24.0206 7.92127C24.2475 7.39951 24.5764 6.94418 25.0074 6.55529L27.1609 4.67405C28.0294 3.92219 28.9822 3.36965 30.0192 3.01641C31.053 2.66317 32.1289 2.50923 33.247 2.5546C33.5192 2.5546 33.7526 2.64696 33.947 2.83168C34.1414 3.01317 34.2614 3.22867 34.3067 3.47821C34.4882 4.59627 34.4655 5.69002 34.2387 6.75946C34.0118 7.83215 33.5792 8.83516 32.9408 9.76849L31.2977 12.1602C30.9801 12.6398 30.5766 13.0222 30.0873 13.3074C29.5947 13.5926 29.0648 13.7578 28.4977 13.8032L26.4463 13.9393C25.8986 13.9847 25.3801 14.1321 24.8908 14.3817C24.4014 14.6345 23.985 14.9764 23.6414 15.4074ZM34.5109 31.1671C34.0313 30.7328 32.1403 29.0007 28.838 25.9706L23.131 20.8081C23.0176 20.6946 22.8912 20.6428 22.7519 20.6525C22.6158 20.6655 22.4975 20.7238 22.397 20.8275C22.2933 20.928 22.2463 21.0527 22.256 21.2018C22.269 21.3509 22.3208 21.4708 22.4116 21.5615L33.7915 31.9497C34.0669 32.2025 34.216 32.5444 34.2387 32.9754C34.2387 33.5004 34.062 33.9396 33.7088 34.2928C33.3556 34.646 32.9164 34.8227 32.3914 34.8227C31.9604 34.8227 31.6072 34.6865 31.3317 34.4143L21.2158 23.2678C21.1023 23.1544 20.9776 23.0977 20.8414 23.0977C20.7021 23.0977 20.5757 23.143 20.4623 23.2338C20.3489 23.3245 20.2921 23.4444 20.2921 23.5935C20.2921 23.7426 20.3375 23.8738 20.4283 23.9872L30.5831 35.0949C31.0368 35.5972 31.6283 35.8597 32.3574 35.8824H32.4255C32.8144 35.8824 33.1854 35.8078 33.5387 35.6588C33.8919 35.5129 34.1998 35.3088 34.4623 35.0463C34.7215 34.7838 34.9257 34.4694 35.0748 34.1032C35.2239 33.7402 35.2984 33.353 35.2984 32.9414C35.2757 32.2122 35.0132 31.6208 34.5109 31.1671ZM6.82687 14.897C7.25788 15.3053 7.74724 15.618 8.29492 15.8352C8.84261 16.0523 9.41298 16.1608 10.006 16.1608L12.0574 16.1949C12.4658 16.1949 12.853 16.2743 13.2192 16.4331C13.5822 16.5919 13.9014 16.8203 14.1769 17.1185L15.0956 18.1102C15.2123 18.2236 15.3387 18.2803 15.4748 18.2803C15.6109 18.2803 15.7308 18.2349 15.8345 18.1442C15.935 18.0534 15.9917 17.9335 16.0046 17.7845C16.0144 17.6354 15.9625 17.5041 15.8491 17.3907L14.9595 16.399C14.5739 15.9907 14.1364 15.678 13.647 15.4609C13.1544 15.2437 12.6246 15.1352 12.0574 15.1352H10.006C9.06946 15.0898 8.24793 14.7592 7.54145 14.1435L1.59631 7.03654C1.52825 6.96525 1.52339 6.89557 1.58173 6.82752C1.63682 6.75946 1.68219 6.72543 1.71784 6.72543C1.75025 6.72543 1.78913 6.74812 1.8345 6.79349L7.26923 12.2282C7.56738 12.5037 7.89793 12.6414 8.26089 12.6414C8.6271 12.6414 8.94631 12.5037 9.21853 12.2282L11.6442 9.83654C11.9197 9.54164 12.0574 9.21108 12.0574 8.84488C12.0574 8.48191 11.9197 8.1627 11.6442 7.88724L6.20951 2.45252C6.14145 2.36178 6.14145 2.27752 6.20951 2.19974C6.27756 2.11872 6.35696 2.11224 6.4477 2.18029L13.5595 8.13029C14.1752 8.83678 14.5058 9.65668 14.5512 10.59V12.6754C14.5512 13.2199 14.6597 13.7433 14.8769 14.2456C15.0908 14.7479 15.4035 15.1805 15.8151 15.5435L16.8067 16.4331C16.8975 16.5238 17.0174 16.5692 17.1664 16.5692C17.3123 16.5692 17.437 16.5125 17.5408 16.399C17.6445 16.2856 17.6898 16.1609 17.6769 16.0247C17.6671 15.8886 17.6056 15.7622 17.4921 15.6456L16.5345 14.7608C16.2364 14.4854 16.0079 14.1662 15.8491 13.8032C15.6903 13.437 15.5996 13.0611 15.5769 12.6754V10.59C15.5769 9.99696 15.4634 9.42659 15.2366 8.87891C15.0065 8.33122 14.6986 7.84187 14.313 7.41085L7.13312 1.35877C6.88358 1.1546 6.60488 1.059 6.297 1.07196C5.98913 1.08168 5.71529 1.20645 5.47548 1.44627C5.23566 1.68608 5.11576 1.97127 5.11576 2.30182C5.11576 2.63238 5.2308 2.92242 5.46089 3.17196L10.8956 8.60668C11.0317 8.76548 11.0317 8.92428 10.8956 9.08307L10.6185 9.36016L4.57131 3.30807C4.45788 3.19465 4.3315 3.13793 4.19214 3.13793C4.05603 3.13793 3.93775 3.18979 3.83728 3.29349C3.73358 3.39395 3.68173 3.51224 3.68173 3.64835C3.68173 3.7877 3.7271 3.91409 3.81784 4.02752L9.90395 10.0747L9.49076 10.4879L3.44353 4.43585C3.33011 4.32242 3.20372 4.26571 3.06437 4.26571C2.92826 4.26571 2.80997 4.31756 2.70951 4.42127C2.6058 4.52173 2.55395 4.6465 2.55395 4.79557C2.55395 4.94465 2.59932 5.06455 2.69006 5.15529L8.74214 11.2365L8.49909 11.4796C8.34029 11.6157 8.1815 11.6157 8.0227 11.4796L2.58798 6.04488C2.33844 5.81479 2.04839 5.69974 1.71784 5.69974C1.38728 5.69974 1.1021 5.81965 0.862283 6.05946C0.622468 6.29928 0.497699 6.57312 0.487977 6.88099C0.475014 7.18886 0.570616 7.46756 0.774783 7.7171L6.82687 14.897Z" fill="#514AE1"/>
</g>
</svg>
