<svg width="36" height="36" viewBox="0 0 36 36" fill="none" xmlns="http://www.w3.org/2000/svg">
<g id="svg">
<path id="Vector" d="M29.5576 3.78906C28.19 3.81175 27.0558 4.27841 26.1549 5.18906C25.2539 6.09971 24.7921 7.23883 24.7694 8.60642C24.7921 9.97402 25.2604 11.1018 26.1743 11.9898C27.085 12.8777 28.2127 13.3444 29.5576 13.3898C30.922 13.3444 32.0546 12.8729 32.9556 11.9752C33.8565 11.0742 34.3296 9.93999 34.375 8.5724C34.3523 7.2048 33.8857 6.07054 32.975 5.16962C32.0611 4.27193 30.922 3.81175 29.5576 3.78906ZM29.5576 12.33C28.485 12.3073 27.5954 11.9428 26.8889 11.2363C26.1824 10.5298 25.8178 9.64184 25.7951 8.5724C25.8178 7.49971 26.1889 6.61661 26.9083 5.92309C27.6245 5.22957 28.5076 4.87147 29.5576 4.84878C30.6271 4.87147 31.515 5.23605 32.2215 5.94253C32.928 6.64902 33.2926 7.53698 33.3153 8.60642C33.2926 9.67587 32.928 10.559 32.2215 11.2557C31.515 11.9492 30.6271 12.3073 29.5576 12.33ZM31.0597 9.32587C31.0597 9.23513 31.037 9.14925 30.9917 9.06823C30.9463 8.98721 30.9009 8.91267 30.8556 8.84462L30.6854 8.64045C30.6174 8.5724 30.5428 8.5092 30.4618 8.45087C30.3808 8.39578 30.2949 8.35689 30.2042 8.3342L29.966 8.19809L29.6937 8.09601C29.6484 8.09601 29.603 8.0717 29.5576 8.02309L29.2806 7.92101L29.1785 7.81892C29.1558 7.77355 29.1331 7.72818 29.1104 7.68281C29.0877 7.63744 29.0764 7.59207 29.0764 7.5467V7.37656L29.1104 7.24045L29.1785 7.10434L29.2806 7.00226C29.3259 6.97633 29.3843 6.95203 29.4556 6.92934C29.5236 6.90665 29.5803 6.90665 29.6257 6.92934H29.8299C29.8752 6.90665 29.9319 6.918 30 6.96337L30.4083 7.03628L30.5833 7.10434L30.6854 6.3849V6.24878L29.9319 6.07865V5.46128H29.1104V6.11267H29.0764C28.9856 6.15804 28.8949 6.20341 28.8042 6.24878C28.7134 6.29416 28.634 6.35087 28.566 6.41892C28.4979 6.48698 28.4347 6.56152 28.3764 6.64253C28.3181 6.72031 28.2662 6.81591 28.2208 6.92934L28.1187 7.20642C28.0961 7.31985 28.0847 7.42679 28.0847 7.52726C28.0847 7.63096 28.0961 7.72818 28.1187 7.81892C28.1414 7.90966 28.1755 7.98906 28.2208 8.05712L28.3618 8.30017L28.5319 8.50434C28.6 8.5724 28.6729 8.62911 28.7507 8.67448C28.8317 8.71985 28.9176 8.76522 29.0083 8.81059C29.0991 8.85596 29.1785 8.88999 29.2465 8.91267L29.5236 9.01476C29.569 9.03744 29.6144 9.06013 29.6597 9.08281L29.7958 9.15087C29.8185 9.19948 29.8525 9.22378 29.8979 9.22378L30 9.32587C30.0227 9.34855 30.034 9.39392 30.034 9.46198L30.0681 9.63212V9.80226C30.0681 9.84763 30.0567 9.88165 30.034 9.90434L29.9319 10.0064C29.8866 10.0518 29.8412 10.0858 29.7958 10.1085L29.6597 10.1766L29.4896 10.2106H29.0764L28.9062 10.1766C28.8382 10.1766 28.7701 10.1539 28.7021 10.1085L28.1187 9.90434L28.0167 10.828L28.1187 10.862C28.2322 10.8393 28.3294 10.8458 28.4104 10.8814C28.4914 10.9138 28.566 10.93 28.634 10.93L28.9062 10.9981C28.997 11.0435 29.0764 11.0548 29.1444 11.0321H29.2125V11.7175H30.034V10.9981C30.1475 10.9754 30.2495 10.9414 30.3403 10.896C30.431 10.8506 30.5169 10.7939 30.5979 10.7259C30.6789 10.6578 30.747 10.5833 30.8021 10.5023C30.8604 10.4245 30.9236 10.3273 30.9917 10.2106L31.0597 9.90434C31.1051 9.8136 31.1278 9.71638 31.1278 9.61267C31.1278 9.51221 31.1051 9.41661 31.0597 9.32587ZM27.2292 14.0071C27.1384 13.8937 27.025 13.8305 26.8889 13.8175C26.7528 13.8078 26.6167 13.837 26.4806 13.905L21.1479 18.178L14.2451 15.305C14.0604 15.237 13.8887 15.2597 13.7299 15.3731L6.34583 20.6377C6.23241 20.7284 6.16435 20.8418 6.14167 20.978C6.11898 21.1141 6.15301 21.2567 6.24375 21.4057C6.33449 21.5548 6.47222 21.618 6.65694 21.5953C6.74768 21.5953 6.83843 21.5726 6.92917 21.5273L14.1042 16.3988L21.0458 19.2717C21.2273 19.3171 21.3975 19.2944 21.5562 19.2036L27.1271 14.7606C27.2664 14.6925 27.341 14.584 27.3507 14.4349C27.3637 14.2858 27.3231 14.1432 27.2292 14.0071ZM34.9583 32.1196C34.8643 32.1196 34.4641 32.1196 33.7576 32.1196H32.5278V16.8071C32.5278 16.671 32.4775 16.5527 32.3771 16.4523C32.2734 16.3486 32.1421 16.2967 31.9833 16.2967H27.1271C26.991 16.2967 26.8727 16.3486 26.7722 16.4523C26.6685 16.5527 26.6167 16.671 26.6167 16.8071V32.1196H24.8375V22.1057C24.8375 21.9469 24.7873 21.8222 24.6868 21.7314C24.5831 21.6407 24.4519 21.584 24.2931 21.5613H19.4028C19.2667 21.584 19.1468 21.6407 19.0431 21.7314C18.9426 21.8222 18.8924 21.9469 18.8924 22.1057V32.1196H17.1132V21.3231C17.1132 21.1611 17.063 21.0298 16.9625 20.9293C16.8588 20.8256 16.7275 20.7738 16.5687 20.7738H11.7125C11.5764 20.7738 11.4565 20.8256 11.3528 20.9293C11.2523 21.0298 11.2021 21.1611 11.2021 21.3231V32.1196H9.42292V24.4293C9.42292 24.2705 9.37269 24.1409 9.27222 24.0405C9.16852 23.9367 9.03727 23.8849 8.87847 23.8849H3.98819C3.85208 23.8849 3.73218 23.9367 3.62847 24.0405C3.52801 24.1409 3.47778 24.2705 3.47778 24.4293V32.1196H0.979167C0.843056 32.1196 0.724769 32.1666 0.624306 32.2606C0.520602 32.3513 0.46875 32.4761 0.46875 32.6349C0.46875 32.7937 0.520602 32.9185 0.624306 33.0092C0.724769 33.0999 0.843056 33.1453 0.979167 33.1453H34.9243C35.0831 33.1453 35.2127 33.0999 35.3132 33.0092C35.4169 32.9185 35.4688 32.7937 35.4688 32.6349C35.4688 32.4761 35.4234 32.3513 35.3326 32.2606C35.2419 32.1666 35.1171 32.1196 34.9583 32.1196ZM8.32917 32.1196C8.17037 32.1196 7.53194 32.1196 6.41389 32.1196H4.5375V24.9446H8.32917V32.1196ZM16.0535 32.1196C15.8947 32.1196 15.2579 32.1196 14.1431 32.1196H12.2618V21.8335H16.0535V32.1196ZM23.7437 32.1196C23.585 32.1196 22.9481 32.1196 21.8333 32.1196H19.9521V22.621H23.7437V32.1196ZM31.4681 32.1196C31.3093 32.1196 30.6725 32.1196 29.5576 32.1196H27.6764V17.3564H31.4681V32.1196Z" fill="#514AE1"/>
</g>
</svg>
