<svg width="36" height="36" viewBox="0 0 36 36" fill="none" xmlns="http://www.w3.org/2000/svg">
<g id="svg">
<path id="Vector" d="M35.1781 14.0073C34.4716 13.6411 31.6571 12.1374 26.7344 9.49616L18.2566 4.98505C18.0751 4.89431 17.8936 4.89431 17.7122 4.98505L0.790625 14.0073C0.586458 14.1207 0.484375 14.2908 0.484375 14.5177C0.484375 14.7478 0.586458 14.9195 0.790625 15.033L5.57882 17.5607V24.6725H6.7066V18.1781L8.37882 19.0677V22.5191C7.87975 22.6552 7.47627 22.9161 7.1684 23.3017C6.86053 23.6906 6.7066 24.1475 6.7066 24.6725C6.7066 25.1943 6.86539 25.6496 7.18299 26.0385C6.86539 27.108 6.7066 28.1904 6.7066 29.2857V30.8899C6.7066 31.12 6.80868 31.2918 7.01285 31.4052L7.63021 31.7114C8.03854 31.9156 8.47604 32.0177 8.94271 32.0177C9.40937 32.0177 9.8485 31.9156 10.2601 31.7114L10.9115 31.4052C11.0929 31.2918 11.195 31.12 11.2177 30.8899V29.2857C11.2177 28.1904 11.0573 27.108 10.7365 26.0385C11.0346 25.6496 11.1837 25.1943 11.1837 24.6725C11.1837 24.1475 11.0297 23.6906 10.7219 23.3017C10.414 22.9161 10.0089 22.6552 9.5066 22.5191V19.6802L17.7122 24.0552C17.8029 24.1006 17.8936 24.1232 17.9844 24.1232C18.0751 24.1232 18.1659 24.1006 18.2566 24.0552L29.2622 18.1781V24.3955C27.6904 25.5816 25.9712 26.4874 24.1045 27.1128C22.2346 27.7415 20.308 28.0559 18.3247 28.0559H17.6441C15.7061 28.0559 13.8022 27.7594 11.9323 27.1663L11.592 28.226C13.5527 28.8644 15.57 29.1837 17.6441 29.1837H18.3247C20.4668 29.1837 22.5522 28.8353 24.5809 28.1385C26.6096 27.445 28.4779 26.4371 30.1858 25.1149C30.3219 25.0015 30.3899 24.854 30.3899 24.6725V17.5607L35.1781 15.033C35.3823 14.9195 35.4844 14.7478 35.4844 14.5177C35.4844 14.2908 35.3823 14.1207 35.1781 14.0073ZM10.0899 29.2857V30.5496C10.0672 30.5496 10.0105 30.5723 9.91979 30.6177L9.78368 30.6857C9.50822 30.8219 9.22789 30.8899 8.94271 30.8899C8.65752 30.8899 8.39016 30.8219 8.14062 30.6857L7.83437 30.5496V29.2857C7.83437 28.4431 7.93646 27.6119 8.14062 26.792C8.39016 26.8827 8.664 26.9281 8.96215 26.9281C9.25706 26.9281 9.5309 26.8827 9.78368 26.792C9.98785 27.6119 10.0899 28.4431 10.0899 29.2857ZM10.0899 24.6725C10.0672 24.9901 9.9522 25.2575 9.74479 25.4746C9.54062 25.6918 9.27975 25.8003 8.96215 25.8003C8.64132 25.8003 8.37396 25.6918 8.16007 25.4746C7.94294 25.2575 7.83437 24.9901 7.83437 24.6725C7.83437 24.3517 7.94294 24.0892 8.16007 23.885C8.37396 23.6809 8.64132 23.5788 8.96215 23.5788C9.27975 23.5788 9.54062 23.6809 9.74479 23.885C9.9522 24.0892 10.0672 24.3517 10.0899 24.6725ZM33.7052 14.5177L17.9844 22.9274C17.6441 22.7459 16.2992 22.0168 13.9497 20.7399L9.91979 18.5864L16.8906 14.8628C17.2082 14.9989 17.5728 15.0783 17.9844 15.101C18.6228 15.0783 19.1527 14.9066 19.574 14.5857C19.9953 14.2681 20.2059 13.8695 20.2059 13.3899C20.2059 12.9135 19.9953 12.5149 19.574 12.1941C19.1527 11.8765 18.6228 11.7177 17.9844 11.7177C17.3459 11.7177 16.8161 11.8765 16.3948 12.1941C15.9735 12.5149 15.7515 12.9135 15.7288 13.3899C15.7288 13.6427 15.7969 13.8825 15.933 14.1094L8.72396 17.9739L2.26354 14.5177L17.9844 6.11283L33.7052 14.5177ZM16.8566 13.3899C16.8566 13.2765 16.9587 13.1582 17.1628 13.035C17.3703 12.9087 17.6441 12.8455 17.9844 12.8455C18.3247 12.8455 18.5985 12.9087 18.8059 13.035C19.0101 13.1582 19.1122 13.2765 19.1122 13.3899C19.1122 13.5066 19.0101 13.6265 18.8059 13.7496C18.5985 13.876 18.3247 13.9392 17.9844 13.9392C17.6441 13.9392 17.3703 13.876 17.1628 13.7496C16.9587 13.6265 16.8566 13.5066 16.8566 13.3899Z" fill="#514AE1"/>
</g>
</svg>
