<svg width="36" height="36" viewBox="0 0 36 36" fill="none" xmlns="http://www.w3.org/2000/svg">
<g id="svg">
<path id="Vector" d="M22.9242 17.1184C22.9468 17.3906 23.0603 17.5899 23.2644 17.7163C23.4686 17.8395 23.6906 17.833 23.9304 17.6969C24.1702 17.5608 24.2837 17.3615 24.2707 17.099C24.261 16.8365 24.1524 16.6436 23.945 16.5205C23.7408 16.3941 23.5188 16.399 23.279 16.5351C23.0424 16.6712 22.9242 16.8656 22.9242 17.1184ZM23.7068 20.0545C23.5253 20.0318 23.36 20.0723 23.211 20.176C23.0651 20.2797 22.9809 20.4337 22.9582 20.6378C22.8415 21.2763 22.5385 21.8353 22.0492 22.3149C21.5598 22.7913 20.9052 23.1559 20.0853 23.4087C19.1973 23.7036 18.2462 23.7652 17.2318 23.5934C16.2174 23.4216 15.323 22.9598 14.5485 22.208C14.435 22.0492 14.286 21.9698 14.1012 21.9698C13.9198 21.9698 13.7545 22.033 13.6054 22.1594C13.4596 22.2858 13.3802 22.4397 13.3672 22.6212C13.3575 22.8027 13.4207 22.9728 13.5568 23.1316C14.4221 24.0455 15.5158 24.6385 16.8381 24.9108C17.3177 25.0015 17.7957 25.0469 18.2721 25.0469C19.0239 25.0469 19.7644 24.9448 20.4936 24.7406C21.5663 24.3971 22.4332 23.8834 23.0943 23.1997C23.7554 22.5159 24.154 21.7186 24.2901 20.808C24.3128 20.6265 24.2723 20.4612 24.1686 20.3122C24.0681 20.1631 23.9142 20.0772 23.7068 20.0545ZM33.2103 14.0073C31.9561 12.549 30.2806 11.6253 28.1839 11.2365C29.1885 10.5753 30.1056 9.92072 30.9353 9.27257C31.7681 8.62442 32.4925 8.01516 33.1082 7.44479C34.9295 5.69155 35.5793 4.38067 35.0575 3.51215C34.7593 3.01308 34.1841 2.7684 33.3318 2.77813C32.4762 2.79109 31.2966 3.04711 29.7929 3.54618C28.5161 3.98044 27.1193 4.55567 25.6026 5.27187C24.0892 5.99132 22.5239 6.81771 20.9068 7.75104C20.3591 8.07188 19.8114 8.39109 19.2637 8.70868C19.0823 8.13831 19.0547 7.55174 19.1811 6.94896C19.3043 6.34618 19.583 5.75961 20.0172 5.18924C20.3348 4.77766 20.5276 4.3272 20.5957 3.83785C20.6637 3.3485 20.5908 2.88183 20.3769 2.43785C20.1598 1.99387 19.8293 1.64062 19.3853 1.37812C18.9413 1.11562 18.4114 0.984375 17.7957 0.984375C15.6762 0.984375 13.6362 1.38299 11.6756 2.18021C9.71814 2.97743 7.92439 4.12789 6.2943 5.6316C4.66421 7.1353 3.37115 8.83831 2.41513 10.7406C1.45588 12.6462 0.885505 14.6571 0.704023 16.7733C0.499857 19.327 0.785042 21.7543 1.55958 24.0552C2.33412 26.3561 3.56398 28.4302 5.24916 30.2774C6.93759 32.1214 8.89176 33.5344 11.1117 34.5163C13.3348 35.495 15.6762 35.9844 18.136 35.9844C20.7804 35.9844 23.2191 35.5064 25.4519 34.5503C27.5033 33.6851 29.3036 32.4649 30.8526 30.8899C32.2883 29.4089 33.3934 27.7464 34.1679 25.9024C34.5536 25.0145 34.8501 24.1135 35.0575 23.1997C35.2617 22.289 35.3637 21.3897 35.3637 20.5017C35.3864 19.2022 35.2147 18.0064 34.8485 16.9142C34.4855 15.8189 33.9394 14.8499 33.2103 14.0073ZM19.3658 10.2837C20.095 9.82674 20.8355 9.36979 21.5874 8.91285C23.0911 8.07025 24.5494 7.30706 25.9624 6.62326C27.3753 5.93947 28.6862 5.3934 29.895 4.98507C31.1945 4.52812 32.1522 4.26562 32.7679 4.19757C33.3804 4.12951 33.745 4.14086 33.8617 4.2316C33.8843 4.29965 33.7758 4.52813 33.536 4.91701C33.2962 5.30266 32.755 5.88275 31.9124 6.65729C31.1832 7.34109 30.3114 8.05891 29.2971 8.81076C28.2827 9.56262 27.1712 10.3145 25.9624 11.0663C25.2105 11.5459 24.436 12.0142 23.6387 12.4712C22.5466 13.1064 21.4642 13.6978 20.3915 14.2455C20.1874 13.6071 19.92 13.0027 19.5894 12.4323C19.2589 11.8652 18.8765 11.3418 18.4422 10.8622L19.3658 10.2837ZM19.1617 14.8628C18.183 15.3166 17.261 15.7152 16.3957 16.0587C15.5272 16.399 14.7397 16.6728 14.0332 16.8802C13.9651 16.514 13.8404 16.177 13.6589 15.8691C13.4774 15.5612 13.2603 15.2825 13.0075 15.033C13.5325 14.5307 14.1596 13.9895 14.8887 13.4094C15.6179 12.8293 16.4265 12.2314 17.3144 11.6156C17.726 12.092 18.0857 12.5992 18.3936 13.1372C18.7015 13.6719 18.9575 14.2471 19.1617 14.8628ZM33.9978 20.4677C33.907 24.0455 32.46 27.2587 29.6568 30.1073C26.8536 32.9559 23.0133 34.4596 18.136 34.6184C15.8577 34.6184 13.6994 34.1631 11.661 33.2524C9.6193 32.3385 7.81907 31.039 6.26027 29.3538C4.69824 27.6686 3.55912 25.755 2.84291 23.6128C2.12347 21.4707 1.86583 19.2265 2.07 16.8802C2.52694 12.7774 4.23643 9.35845 7.19847 6.62326C10.1605 3.88808 13.6929 2.46377 17.7957 2.35035C18.4795 2.37303 18.9299 2.6015 19.1471 3.03576C19.361 3.46678 19.2978 3.91076 18.9575 4.36771C18.3418 5.16493 17.9593 6.00752 17.8103 6.89549C17.6644 7.78669 17.7617 8.64225 18.1019 9.46215L17.0082 10.1767C15.9161 10.9059 14.9244 11.6237 14.0332 12.3302C13.1452 13.0367 12.3934 13.6978 11.7776 14.3135C11.3239 14.1547 10.8524 14.098 10.3631 14.1434C9.87046 14.1888 9.40865 14.3362 8.97763 14.5858C8.22578 15.1334 7.48527 16.0457 6.75611 17.3226C6.02694 18.5994 5.54731 19.4874 5.31722 19.9865C5.22648 20.2166 5.2443 20.4337 5.37069 20.6378C5.49708 20.842 5.6737 20.9554 5.90055 20.9781L6.92625 21.0462C7.40588 21.0689 7.9406 21.0802 8.53041 21.0802C9.28226 21.0802 10.0114 21.0413 10.7179 20.9635C11.4244 20.8825 11.9883 20.7286 12.4096 20.5017C12.8309 20.2749 13.1793 19.967 13.4547 19.5781C13.7269 19.1892 13.9198 18.7566 14.0332 18.2802C14.879 18.0534 15.8302 17.7341 16.8867 17.3226C17.9464 16.911 19.0693 16.4103 20.2554 15.8205C21.6003 15.1821 22.9566 14.4642 24.3242 13.667C25.0306 13.2554 25.7144 12.8439 26.3755 12.4323C29.2015 12.617 31.1945 13.5066 32.3547 15.101C33.5181 16.6955 34.0658 18.4844 33.9978 20.4677ZM12.7353 17.6969C12.7126 18.0404 12.6105 18.3547 12.429 18.6399C12.2475 18.9251 12.0077 19.1584 11.7096 19.3399C11.3466 19.5214 10.7147 19.6348 9.81375 19.6802C8.91282 19.7256 7.98435 19.7256 7.02833 19.6802C7.46259 18.8376 7.92439 18.0339 8.41375 17.2691C8.9031 16.5075 9.31791 16.0133 9.65819 15.7865C9.97902 15.6017 10.3096 15.5094 10.6499 15.5094C10.9934 15.5094 11.3304 15.5953 11.661 15.767C11.9915 15.9388 12.2589 16.2013 12.4631 16.5545C12.6672 16.9078 12.758 17.2885 12.7353 17.6969ZM12.6672 5.22326C11.8927 5.24595 11.2494 5.51331 10.7374 6.02535C10.2253 6.53738 9.9693 7.18067 9.9693 7.95521C9.9693 8.72975 10.2253 9.37465 10.7374 9.88993C11.2494 10.402 11.8927 10.658 12.6672 10.658C13.4418 10.658 14.085 10.402 14.5971 9.88993C15.1124 9.37465 15.37 8.72975 15.37 7.95521C15.37 7.18067 15.1124 6.53738 14.5971 6.02535C14.085 5.51331 13.4418 5.24595 12.6672 5.22326ZM12.6672 9.32604C12.2816 9.30336 11.9575 9.16562 11.695 8.91285C11.4325 8.66331 11.3012 8.3441 11.3012 7.95521C11.3012 7.56956 11.4325 7.24549 11.695 6.98299C11.9575 6.72049 12.2816 6.58924 12.6672 6.58924C13.0561 6.58924 13.3818 6.72049 13.6443 6.98299C13.9036 7.24549 14.0332 7.56956 14.0332 7.95521C14.0332 8.3441 13.9036 8.66331 13.6443 8.91285C13.3818 9.16562 13.0561 9.30336 12.6672 9.32604ZM9.24986 23.5788C8.47532 23.6015 7.83203 23.8689 7.32 24.3809C6.80796 24.8929 6.55194 25.5362 6.55194 26.3108C6.55194 27.0853 6.80796 27.7286 7.32 28.2406C7.83203 28.7559 8.47532 29.0135 9.24986 29.0135C10.0244 29.0135 10.6677 28.7559 11.1797 28.2406C11.6918 27.7286 11.9478 27.0853 11.9478 26.3108C11.9478 25.5362 11.6918 24.8929 11.1797 24.3809C10.6677 23.8689 10.0244 23.6015 9.24986 23.5788ZM9.24986 27.6767C8.86097 27.6767 8.53689 27.5471 8.27763 27.2878C8.01513 27.0253 7.88388 26.6997 7.88388 26.3108C7.88388 25.9251 8.01513 25.6059 8.27763 25.3531C8.53689 25.1036 8.86097 24.9788 9.24986 24.9788C9.63875 24.9788 9.96282 25.1036 10.2221 25.3531C10.4846 25.6059 10.6158 25.9251 10.6158 26.3108C10.6158 26.6997 10.4846 27.0253 10.2221 27.2878C9.96282 27.5471 9.63875 27.6767 9.24986 27.6767ZM16.0846 27.6767C15.31 27.6994 14.6668 27.9684 14.1547 28.4837C13.6427 28.9957 13.3867 29.639 13.3867 30.4135C13.3867 31.1881 13.6427 31.8314 14.1547 32.3434C14.6668 32.8554 15.31 33.1115 16.0846 33.1115C16.8591 33.1115 17.504 32.8554 18.0193 32.3434C18.5313 31.8314 18.7874 31.1881 18.7874 30.4135C18.7874 29.639 18.5313 28.9957 18.0193 28.4837C17.504 27.9684 16.8591 27.6994 16.0846 27.6767ZM16.0846 31.7795C15.6989 31.7795 15.3749 31.6483 15.1124 31.3858C14.8499 31.1233 14.7186 30.7992 14.7186 30.4135C14.7186 30.0247 14.8499 29.7054 15.1124 29.4559C15.3749 29.2064 15.6989 29.0816 16.0846 29.0816C16.4735 29.0816 16.7992 29.2064 17.0617 29.4559C17.3242 29.7054 17.4554 30.0247 17.4554 30.4135C17.4554 30.7992 17.3242 31.1233 17.0617 31.3858C16.7992 31.6483 16.4735 31.7795 16.0846 31.7795ZM24.2901 26.3108C23.5156 26.3334 22.8707 26.6008 22.3554 27.1128C21.8434 27.6281 21.5874 28.273 21.5874 29.0476C21.5874 29.8221 21.8434 30.4654 22.3554 30.9774C22.8707 31.4895 23.5156 31.7455 24.2901 31.7455C25.0647 31.7455 25.708 31.4895 26.22 30.9774C26.732 30.4654 26.9881 29.8221 26.9881 29.0476C26.9881 28.273 26.732 27.6281 26.22 27.1128C25.708 26.6008 25.0647 26.3334 24.2901 26.3108ZM24.2901 30.4135C23.9012 30.4135 23.5756 30.2823 23.313 30.0198C23.0538 29.7573 22.9242 29.4332 22.9242 29.0476C22.9242 28.6587 23.0538 28.3395 23.313 28.0899C23.5756 27.8372 23.9012 27.7108 24.2901 27.7108C24.6758 27.7108 24.9999 27.8372 25.2624 28.0899C25.5249 28.3395 25.6561 28.6587 25.6561 29.0476C25.6561 29.4332 25.5249 29.7573 25.2624 30.0198C24.9999 30.2823 24.6758 30.4135 24.2901 30.4135ZM29.7589 19.476C28.9843 19.4987 28.3394 19.7661 27.8242 20.2781C27.3121 20.7902 27.0561 21.4334 27.0561 22.208C27.0561 22.9825 27.3121 23.6274 27.8242 24.1427C28.3394 24.6547 28.9843 24.9108 29.7589 24.9108C30.5334 24.9108 31.1767 24.6547 31.6887 24.1427C32.2008 23.6274 32.4568 22.9825 32.4568 22.208C32.4568 21.4334 32.2008 20.7902 31.6887 20.2781C31.1767 19.7661 30.5334 19.4987 29.7589 19.476ZM29.7589 23.5788C29.37 23.5788 29.0443 23.4476 28.7818 23.1851C28.5225 22.9226 28.3929 22.5969 28.3929 22.208C28.3929 21.8223 28.5225 21.5047 28.7818 21.2552C29.0443 21.0024 29.37 20.876 29.7589 20.876C30.1445 20.876 30.4686 21.0024 30.7311 21.2552C30.9936 21.5047 31.1249 21.8223 31.1249 22.208C31.1249 22.5969 30.9936 22.9226 30.7311 23.1851C30.4686 23.4476 30.1445 23.5788 29.7589 23.5788Z" fill="#514AE1"/>
</g>
</svg>
