<svg width="36" height="36" viewBox="0 0 36 36" fill="none" xmlns="http://www.w3.org/2000/svg">
<g id="svg">
<path id="Vector" d="M33.5012 8.3002C32.7039 7.27288 31.4968 6.62311 29.8796 6.35089C28.2625 6.07867 26.3375 6.20344 24.1046 6.7252L23.7935 6.04464C24.3866 5.33816 24.5583 4.57982 24.3088 3.76964C24.056 2.95945 23.4857 2.42959 22.5977 2.18006C22.1213 2.08932 21.6546 2.13469 21.1977 2.31617C20.1963 1.4282 19.1252 0.97288 17.9845 0.950195C16.7077 0.97288 15.5005 1.56594 14.363 2.72936C13.4264 3.70807 12.6049 5.04001 11.8984 6.7252C9.66552 6.20344 7.74052 6.07867 6.12339 6.35089C4.50626 6.62311 3.29909 7.27288 2.50186 8.3002C1.63659 9.48307 1.43728 10.9576 1.90395 12.7238C2.37061 14.49 3.45788 16.3988 5.16575 18.4502L4.62131 19.1356C3.71066 18.9282 2.95881 19.121 2.36575 19.7141C1.7727 20.3071 1.56691 21.059 1.74839 21.9696C1.83913 22.3585 2.03358 22.7004 2.33172 22.9953C1.39515 25.3189 1.45186 27.1986 2.50186 28.6342C3.02686 29.318 3.74469 29.8365 4.65534 30.1898C5.56598 30.543 6.63705 30.7196 7.86853 30.7196C9.09677 30.7196 10.4401 30.5495 11.8984 30.2092C12.6049 31.8944 13.4264 33.2263 14.363 34.2051C15.5005 35.3685 16.7141 35.9502 18.0039 35.9502C19.2905 35.9502 20.5026 35.3685 21.6401 34.2051C22.5766 33.2263 23.3982 31.8944 24.1046 30.2092L25.0234 30.4134C25.1854 31.324 25.6472 31.9446 26.4088 32.2752C27.1736 32.6058 27.9433 32.5199 28.7178 32.0176C29.1942 31.6546 29.4908 31.1879 29.6074 30.6176C31.3833 30.368 32.6813 29.7069 33.5012 28.6342C34.3438 27.4514 34.5382 25.9768 34.0845 24.2106C33.6276 22.4444 32.5451 20.5243 30.8373 18.4502C32.5451 16.3988 33.6276 14.49 34.0845 12.7238C34.5382 10.9576 34.3438 9.48307 33.5012 8.3002ZM32.5435 8.98075C33.2273 9.91733 33.3472 11.1375 32.9033 12.6412C32.4593 14.1449 31.5081 15.7847 30.0498 17.5606C28.7729 16.1703 27.3827 14.8951 25.8789 13.7349C25.584 11.5701 25.1287 9.59811 24.513 7.81895C26.4509 7.38793 28.1199 7.2745 29.5199 7.47867C30.9199 7.68283 31.9278 8.18353 32.5435 8.98075ZM23.3852 28.8384C21.9949 28.4527 20.65 27.9747 19.3505 27.4044C20.6273 26.7432 21.8588 26.0254 23.0449 25.2509C23.544 24.9106 24.0447 24.5687 24.547 24.2252C24.2975 25.797 23.9102 27.3347 23.3852 28.8384ZM12.6178 28.8384C12.0928 27.3347 11.7056 25.797 11.456 24.2252C11.9583 24.5687 12.459 24.9106 12.9581 25.2509C14.1442 26.0254 15.3757 26.7432 16.6526 27.4044C15.3303 27.9747 13.9854 28.4527 12.6178 28.8384ZM12.6178 8.09603C13.9854 8.48168 15.3303 8.95969 16.6526 9.53006C15.3757 10.1912 14.1442 10.909 12.9581 11.6835C12.459 12.0238 11.9583 12.3657 11.456 12.7092C11.7056 11.1375 12.0928 9.59973 12.6178 8.09603ZM13.6095 24.2592C12.7896 23.7375 11.9924 23.1801 11.2178 22.587C10.9197 19.8291 10.9197 17.0826 11.2178 14.3474C11.9924 13.7544 12.7896 13.197 13.6095 12.6752C15.0225 11.7386 16.4808 10.9058 17.9845 10.1766C19.5109 10.9058 20.9806 11.7386 22.3935 12.6752C23.2134 13.197 23.9993 13.7544 24.7512 14.3474C24.91 15.715 24.9894 17.0875 24.9894 18.4648C24.9894 19.8453 24.91 21.2194 24.7512 22.587C23.9993 23.1801 23.2134 23.7375 22.3935 24.2592C20.9806 25.1958 19.5109 26.0287 17.9845 26.7578C16.4808 26.0287 15.0225 25.1958 13.6095 24.2592ZM9.95395 21.5953C8.79052 20.6166 7.70811 19.5683 6.70672 18.4502C7.70811 17.3548 8.79052 16.3178 9.95395 15.3391C9.88589 16.3664 9.85186 17.4083 9.85186 18.4648C9.85186 19.5245 9.88589 20.568 9.95395 21.5953ZM23.3852 8.09603C23.9102 9.59973 24.2975 11.1375 24.547 12.7092C24.0447 12.3657 23.544 12.0238 23.0449 11.6835C21.8588 10.909 20.6273 10.1912 19.3505 9.53006C20.65 8.95969 21.9949 8.48168 23.3852 8.09603ZM26.0491 15.3391C27.2125 16.3178 28.2949 17.3548 29.2963 18.4502C28.2949 19.5683 27.2125 20.6166 26.0491 21.5953C26.1171 20.568 26.1512 19.5245 26.1512 18.4648C26.1512 17.4083 26.1171 16.3664 26.0491 15.3391ZM23.2491 4.46964C23.2264 4.92658 23.032 5.26362 22.6658 5.48075C22.3028 5.69464 21.922 5.6833 21.5234 5.44672C21.1248 5.20691 20.9255 4.87635 20.9255 4.45506C20.9255 4.03376 21.1183 3.69672 21.5039 3.44395C21.6854 3.3532 21.8799 3.30783 22.0873 3.30783C22.4049 3.30783 22.6787 3.4164 22.9088 3.63353C23.1357 3.85066 23.2491 4.12936 23.2491 4.46964ZM17.9845 2.14603C18.759 2.14603 19.5109 2.44256 20.2401 3.03561C19.7151 3.78746 19.6065 4.55552 19.9144 5.33978C20.2222 6.12728 20.8315 6.61177 21.7421 6.79325C22.1083 6.83862 22.4616 6.80459 22.8019 6.69117L22.9428 7.00228C21.2544 7.50135 19.6016 8.12682 17.9845 8.87867C16.3901 8.12682 14.7502 7.50135 13.0651 7.00228C13.7229 5.44996 14.4796 4.25251 15.3352 3.40992C16.1908 2.56732 17.0739 2.14603 17.9845 2.14603ZM3.4595 8.98075C4.07524 8.18353 5.07663 7.68283 6.46367 7.47867C7.85395 7.2745 9.52941 7.38793 11.4901 7.81895C10.8743 9.59811 10.419 11.5701 10.1241 13.7349C8.62038 14.8951 7.2301 16.1703 5.95325 17.5606C4.49492 15.7847 3.54376 14.1449 3.09978 12.6412C2.6558 11.1375 2.77571 9.91733 3.4595 8.98075ZM4.00395 20.2294C4.46089 20.252 4.79793 20.4449 5.01506 20.8078C5.22895 21.174 5.2176 21.5564 4.98103 21.9551C4.74122 22.3537 4.41066 22.553 3.98936 22.553C3.56807 22.553 3.23103 22.3585 2.97825 21.9696C2.88751 21.7882 2.84214 21.5953 2.84214 21.3912C2.84214 21.0476 2.95071 20.7673 3.16784 20.5502C3.38497 20.3363 3.66367 20.2294 4.00395 20.2294ZM3.4595 27.9537C3.00256 27.2926 2.79677 26.5796 2.84214 25.8148C2.88751 25.0532 3.04793 24.3192 3.32339 23.6127C4.23404 23.8395 4.99075 23.6629 5.59353 23.0828C6.19955 22.4995 6.42154 21.7525 6.2595 20.8419C6.16876 20.4108 5.96459 20.0349 5.647 19.7141L5.95325 19.3738C7.2301 20.7641 8.62038 22.0393 10.1241 23.1995C10.419 25.3643 10.8743 27.3363 11.4901 29.1155C9.52941 29.5465 7.85395 29.6599 6.46367 29.4557C5.07663 29.2516 4.07524 28.7509 3.4595 27.9537ZM17.9845 34.7884C17.0739 34.7884 16.1908 34.3671 15.3352 33.5245C14.4796 32.6819 13.7229 31.4845 13.0651 29.9321C14.7502 29.4331 16.3901 28.8076 17.9845 28.0557C19.6016 28.8076 21.2544 29.4331 22.9428 29.9321C22.2817 31.4845 21.5234 32.6819 20.6678 33.5245C19.8123 34.3671 18.9178 34.7884 17.9845 34.7884ZM27.3519 31.303C26.8722 31.2803 26.5303 31.0858 26.3262 30.7196C26.1188 30.3567 26.1301 29.9759 26.3602 29.5773C26.587 29.1787 26.9111 28.9794 27.3324 28.9794C27.7537 28.9794 28.0891 29.1722 28.3387 29.5578C28.4553 29.7393 28.5137 29.9338 28.5137 30.1412C28.491 30.4588 28.3711 30.731 28.1539 30.9578C27.9368 31.1879 27.6695 31.303 27.3519 31.303ZM32.5435 27.9537C31.9537 28.7509 30.9637 29.2516 29.5734 29.4557C29.2526 28.5905 28.6822 28.0606 27.8623 27.8662C27.0424 27.6717 26.3019 27.8937 25.6408 28.5321C25.4366 28.7363 25.2778 28.9761 25.1644 29.2516L24.513 29.1155C25.1287 27.3363 25.584 25.3643 25.8789 23.1995C27.3827 22.0393 28.7729 20.7641 30.0498 19.3738C31.5081 21.1497 32.4593 22.7895 32.9033 24.2933C33.3472 25.797 33.2273 27.0171 32.5435 27.9537ZM17.9845 13.803C16.1373 13.8937 14.7924 14.6683 13.9498 16.1266C13.1072 17.5849 13.1072 19.1453 13.9498 20.8078C14.9771 22.3569 16.3285 23.1314 18.0039 23.1314C19.6762 23.1314 21.0259 22.3569 22.0533 20.8078C22.4616 20.0787 22.6658 19.2928 22.6658 18.4502C22.6204 17.1507 22.1602 16.0569 21.2852 15.1689C20.407 14.281 19.3067 13.8257 17.9845 13.803ZM17.9845 21.9696C16.5942 21.9016 15.5864 21.3215 14.9609 20.2294C14.3322 19.134 14.337 17.9592 14.9755 16.7051C15.7273 15.5449 16.7368 14.9648 18.0039 14.9648C19.2678 14.9648 20.2757 15.5449 21.0276 16.7051C21.3451 17.2527 21.5039 17.8345 21.5039 18.4502C21.4813 19.4516 21.1394 20.2828 20.4783 20.9439C19.8171 21.6051 18.9859 21.947 17.9845 21.9696Z" fill="#514AE1"/>
</g>
</svg>
