<svg width="36" height="36" viewBox="0 0 36 36" fill="none" xmlns="http://www.w3.org/2000/svg">
<g id="svg">
<path id="Vector" d="M30.7849 19.4078C30.7622 19.3851 30.7168 19.2944 30.6487 19.1356L30.5418 18.8926C29.7219 17.0259 29.3119 15.0669 29.3119 13.0155C29.3119 11.4437 29.5518 9.90598 30.0314 8.40228L30.955 5.63145C31.023 5.42728 30.9777 5.2458 30.8189 5.087L28.5633 2.79742C28.3559 2.6127 28.1274 2.59001 27.8779 2.72936L26.546 3.512C25.6353 4.05969 24.655 4.33353 23.605 4.33353C22.649 4.33353 21.7545 4.11154 20.9217 3.66756C20.092 3.22357 19.4147 2.60297 18.8897 1.80575L18.4765 1.18839C18.3631 1.02959 18.2043 0.950195 18.0001 0.950195C17.796 0.950195 17.6372 1.02959 17.5237 1.18839L17.1446 1.80575C16.5969 2.60297 15.9082 3.22357 15.0786 3.66756C14.2457 4.11154 13.3513 4.33353 12.3953 4.33353C11.3453 4.33353 10.3649 4.05969 9.4543 3.512L8.12235 2.72936C7.87282 2.59001 7.64434 2.6127 7.43694 2.79742L5.18138 5.087C5.02258 5.2458 4.97721 5.42728 5.04527 5.63145L5.96888 8.40228C6.47119 9.90598 6.72235 11.4437 6.72235 13.0155C6.72235 15.0669 6.30106 17.0259 5.45846 18.8926L5.21541 19.4078C4.71633 20.568 4.4668 21.7979 4.4668 23.0974C4.4668 24.7632 4.87027 26.2895 5.67721 27.6766C6.4874 29.0669 7.61032 30.172 9.04596 30.9919L17.7279 35.8821C17.8186 35.9275 17.9094 35.9502 18.0001 35.9502C18.0909 35.9502 18.1816 35.9275 18.2724 35.8821L26.9543 30.9919C28.3899 30.172 29.5129 29.0669 30.323 27.6766C31.13 26.2895 31.5448 24.7632 31.5675 23.0974C31.5675 21.7979 31.3066 20.568 30.7849 19.4078ZM26.3758 30.0051C26.0323 30.2092 24.642 31.0064 22.205 32.3967L18.0001 34.7544L9.62444 30.0051C8.35083 29.2759 7.36078 28.3069 6.6543 27.0981C5.94782 25.8893 5.59457 24.5558 5.59457 23.0974C5.59457 21.9599 5.82143 20.8775 6.27513 19.8502L6.4793 19.3398C7.39319 17.3338 7.85013 15.2257 7.85013 13.0155C7.85013 11.3076 7.57629 9.65483 7.0286 8.05714L6.20707 5.63145L7.91819 3.9252L8.87582 4.50367C9.96795 5.14209 11.1411 5.46131 12.3953 5.46131C13.5328 5.46131 14.586 5.20529 15.555 4.69325C16.524 4.18121 17.339 3.45691 18.0001 2.52033C18.6612 3.45691 19.4763 4.18121 20.4453 4.69325C21.4142 5.20529 22.4675 5.46131 23.605 5.46131C24.8592 5.46131 26.0323 5.14209 27.1244 4.50367L28.0821 3.9252L29.7932 5.63145L28.9717 8.05714C28.4467 9.65483 28.1728 11.3076 28.1501 13.0155C28.1728 15.2257 28.6298 17.3338 29.521 19.3398L29.7592 19.8502C30.2129 20.8775 30.4397 21.9599 30.4397 23.0974C30.417 24.5558 30.0524 25.8893 29.346 27.0981C28.6395 28.3069 27.6494 29.2759 26.3758 30.0051ZM21.3835 17.3224C21.3154 17.3224 20.9962 17.3224 20.4258 17.3224H19.4682L18.5105 15.3731C18.3971 15.1916 18.227 15.1009 18.0001 15.1009C17.7733 15.1009 17.6031 15.1916 17.4897 15.3731L16.5321 17.3224H14.6168C14.3673 17.3451 14.1955 17.4699 14.1015 17.6967C14.0108 17.9268 14.0464 18.1213 14.2085 18.2801L15.6765 19.7481L15.1953 21.6974C15.1499 21.947 15.2196 22.1398 15.4043 22.2759C15.5858 22.4152 15.7786 22.4395 15.9828 22.3488L18.0001 21.3571L20.0175 22.3488C20.0855 22.3942 20.1763 22.4169 20.2897 22.4169C20.4031 22.4169 20.5166 22.3699 20.63 22.2759C20.792 22.1398 20.8504 21.947 20.805 21.6974L20.3237 19.7481L21.7918 18.2801C21.9538 18.0986 21.9895 17.8993 21.8987 17.6821C21.8048 17.465 21.633 17.3451 21.3835 17.3224ZM20.0175 18.4502L19.298 19.2037C19.1619 19.3398 19.1166 19.5099 19.1619 19.7141L19.4001 20.8078L18.2383 20.2294C18.1703 20.184 18.0909 20.1613 18.0001 20.1613C17.9094 20.1613 17.83 20.184 17.7619 20.2294L16.6001 20.8078L16.8724 19.7141C16.895 19.5099 16.8383 19.3398 16.7022 19.2037L15.9828 18.4502H16.8724C17.0992 18.4502 17.2693 18.3481 17.3828 18.1439L18.0001 16.9141L18.6175 18.1439C18.7309 18.3481 18.9011 18.4502 19.1279 18.4502H20.0175ZM12.9057 19.0335C12.8603 19.0335 12.6788 19.0335 12.3612 19.0335H11.7779C11.8233 20.7868 12.4325 22.25 13.6057 23.4231C14.7821 24.5963 16.2469 25.2055 18.0001 25.2509V24.1231C16.5645 24.0777 15.3686 23.577 14.4126 22.621C13.4534 21.6618 12.9511 20.4659 12.9057 19.0335ZM18.0001 12.8113C18.0001 12.8567 18.0001 13.0495 18.0001 13.3898V13.9391C19.4358 13.9845 20.6316 14.4851 21.5876 15.4412C22.5469 16.4004 23.0492 17.5979 23.0946 19.0335H24.2224C24.177 17.277 23.5677 15.8122 22.3946 14.6391C21.2182 13.4659 19.7534 12.8567 18.0001 12.8113ZM18.0001 10.5558C15.6085 10.6238 13.6154 11.4551 12.021 13.0495C10.4233 14.6439 9.59041 16.6386 9.52235 19.0335C9.59041 21.4252 10.4233 23.4183 12.021 25.0127C13.6154 26.6071 15.6085 27.4384 18.0001 27.5064C20.3918 27.4384 22.3849 26.6071 23.9793 25.0127C25.577 23.4183 26.4099 21.4252 26.4779 19.0335C26.4099 16.6386 25.577 14.6439 23.9793 13.0495C22.3849 11.4551 20.3918 10.6238 18.0001 10.5558ZM18.0001 26.3787C15.9261 26.3106 14.2004 25.5879 12.823 24.2106C11.4425 22.8301 10.7182 21.1044 10.6501 19.0335C10.7182 16.9595 11.4425 15.2273 12.823 13.837C14.2004 12.4467 15.9261 11.7289 18.0001 11.6835C20.0742 11.7289 21.8064 12.4467 23.1967 13.837C24.5869 15.2273 25.3048 16.9595 25.3501 19.0335C25.3048 21.1044 24.5869 22.8301 23.1967 24.2106C21.8064 25.5879 20.0742 26.3106 18.0001 26.3787Z" fill="#514AE1"/>
</g>
</svg>
