<svg width="36" height="36" viewBox="0 0 36 36" fill="none" xmlns="http://www.w3.org/2000/svg">
<g id="svg">
<path id="Vector" d="M33.0745 27.3705C33.1198 27.3251 33.1539 27.2797 33.1765 27.2344C34.7256 24.4765 35.5002 21.5598 35.5002 18.4844C35.5002 15.4089 34.7256 12.4922 33.1765 9.73438C33.1539 9.689 33.1198 9.64363 33.0745 9.59826C31.9337 7.6603 30.4867 6.014 28.7335 4.65937C26.977 3.30475 25.0277 2.30822 22.8856 1.66979L22.7495 1.63576C21.2004 1.2015 19.6238 0.984375 18.0196 0.984375C16.4122 0.984375 14.8339 1.2015 13.2849 1.63576L13.1488 1.66979C11.0066 2.30822 9.05733 3.30475 7.30085 4.65937C5.54761 6.014 4.10061 7.6603 2.95987 9.59826C2.9145 9.64363 2.88048 9.689 2.85779 9.73438C1.30872 12.4922 0.53418 15.4089 0.53418 18.4844C0.53418 21.5598 1.30872 24.4765 2.85779 27.2344C2.88048 27.2797 2.9145 27.3251 2.95987 27.3705C4.10061 29.3084 5.54274 30.9547 7.28626 32.3094C9.02978 33.6672 10.9839 34.6638 13.1488 35.299C13.1941 35.3216 13.2395 35.333 13.2849 35.333C14.8339 35.7672 16.4122 35.9844 18.0196 35.9844C19.6238 35.9844 21.2004 35.7672 22.7495 35.333C22.7948 35.333 22.8402 35.3216 22.8856 35.299C25.0504 34.6638 27.0046 33.6672 28.7481 32.3094C30.4916 30.9547 31.9337 29.3084 33.0745 27.3705ZM18.5495 34.9247C18.5495 34.6297 18.5495 33.4112 18.5495 31.2691V27.5747H25.5883C25.1995 28.9876 24.7377 30.2645 24.2029 31.4052C23.6682 32.5427 23.0589 33.523 22.3752 34.3462C21.121 34.7091 19.8458 34.902 18.5495 34.9247ZM13.6592 34.3462C12.9754 33.523 12.3661 32.5427 11.8314 31.4052C11.2967 30.2645 10.8349 28.9876 10.446 27.5747H17.4897V34.9247C16.1902 34.902 14.9133 34.7091 13.6592 34.3462ZM1.55987 18.9948C1.65061 18.9948 2.02654 18.9948 2.68765 18.9948H3.84946V23.0635C3.84946 23.1997 3.89483 23.3196 3.98557 23.4233C4.07631 23.527 4.2027 23.5788 4.36474 23.5788H8.59876C8.73811 24.6029 8.90987 25.5816 9.11404 26.5149H3.64529C3.00686 25.3774 2.51103 24.1703 2.15779 22.8934C1.80455 21.6166 1.60524 20.317 1.55987 18.9948ZM3.64529 10.4538C3.87214 10.4538 4.78279 10.4538 6.37724 10.4538H9.11404C8.90987 11.3872 8.73811 12.3659 8.59876 13.3899H4.36474C4.2027 13.3899 4.07631 13.4418 3.98557 13.5455C3.89483 13.6492 3.84946 13.7691 3.84946 13.9052V17.974H1.55987C1.60524 16.6517 1.80455 15.3522 2.15779 14.0753C2.51103 12.7985 3.00686 11.5913 3.64529 10.4538ZM17.4897 2.0441C17.4897 2.339 17.4897 3.55752 17.4897 5.69965V9.3941H10.446C10.8349 7.98113 11.2967 6.70428 11.8314 5.56354C12.3661 4.42604 12.9754 3.44734 13.6592 2.62743C14.9133 2.26123 16.1902 2.06678 17.4897 2.0441ZM22.3752 2.62743C23.0589 3.44734 23.6682 4.42604 24.2029 5.56354C24.7377 6.70428 25.1995 7.98113 25.5883 9.3941H18.5495V2.0441C19.8458 2.06678 21.121 2.26123 22.3752 2.62743ZM34.4745 17.974C34.3837 17.974 34.0078 17.974 33.3467 17.974H32.1849V13.9052C32.1849 13.7691 32.1395 13.6492 32.0488 13.5455C31.958 13.4418 31.8333 13.3899 31.6745 13.3899H27.4356C27.2962 12.3659 27.1245 11.3872 26.9203 10.4538H32.389C33.0275 11.5913 33.5233 12.7985 33.8765 14.0753C34.2298 15.3522 34.4291 16.6517 34.4745 17.974ZM32.389 26.5149C32.1622 26.5149 31.2515 26.5149 29.6571 26.5149H26.9203C27.1245 25.5816 27.2962 24.6029 27.4356 23.5788H31.6745C31.8333 23.5788 31.958 23.527 32.0488 23.4233C32.1395 23.3196 32.1849 23.1997 32.1849 23.0635V18.9948H34.4745C34.4291 20.317 34.2298 21.6166 33.8765 22.8934C33.5233 24.1703 33.0275 25.3774 32.389 26.5149ZM25.8606 26.5149H18.5495C18.5495 26.4015 18.5495 25.9122 18.5495 25.0469V23.5788H26.4099C26.2738 24.6029 26.0907 25.5816 25.8606 26.5149ZM31.1592 22.5531H4.87515C4.87515 22.2096 4.87515 20.8534 4.87515 18.4844V14.4156H31.1592V22.5531ZM26.4099 13.3899C26.089 13.3899 24.7782 13.3899 22.4772 13.3899H18.5495V10.4538H25.8606C26.0907 11.3872 26.2738 12.3659 26.4099 13.3899ZM10.1738 10.4538H17.4897C17.4897 10.5672 17.4897 11.0566 17.4897 11.9219V13.3899H9.62446C9.76381 12.3659 9.94691 11.3872 10.1738 10.4538ZM9.62446 23.5788C9.94529 23.5788 11.2562 23.5788 13.5571 23.5788H17.4897V26.5149H10.1738C9.94691 25.5816 9.76381 24.6029 9.62446 23.5788ZM24.0522 33.7969C25.2578 31.8589 26.1344 29.7848 26.6821 27.5747H31.7425C30.8059 28.9876 29.683 30.2191 28.3738 31.2691C27.0645 32.3159 25.624 33.1584 24.0522 33.7969ZM31.7425 9.3941C31.5351 9.3941 30.6909 9.3941 29.2099 9.3941H26.6821C26.1344 7.18391 25.2578 5.10984 24.0522 3.17188C25.624 3.8103 27.0645 4.65289 28.3738 5.69965C29.683 6.74965 30.8059 7.98113 31.7425 9.3941ZM11.987 3.17188C10.7782 5.10984 9.89992 7.18391 9.35223 9.3941H4.29182C5.22839 7.98113 6.35131 6.74965 7.66057 5.69965C8.96983 4.65289 10.412 3.8103 11.987 3.17188ZM4.29182 27.5747C4.49923 27.5747 5.34344 27.5747 6.82446 27.5747H9.35223C9.89992 29.7848 10.7782 31.8589 11.987 33.7969C10.412 33.1584 8.96983 32.3159 7.66057 31.2691C6.35131 30.2191 5.22839 28.9876 4.29182 27.5747ZM13.5571 16.2969L12.6335 19.442C12.5881 19.3059 12.418 18.7809 12.1231 17.867L11.6078 16.2969H10.7522L9.72654 19.442L8.77376 16.2969H7.91821L9.28418 20.6719H10.0717L11.1654 17.4247L12.2592 20.6719H13.0807L14.4467 16.2969H13.5571ZM18.0342 17.4247L19.1279 20.6719C19.1506 20.6719 19.2754 20.6719 19.5022 20.6719H19.9154L21.2814 16.2969H20.4258L19.4682 19.442L18.4425 16.2969H17.5918L16.5661 19.442L15.6085 16.2969H14.7529L16.1189 20.6719H16.9064L18.0342 17.4247ZM22.9925 20.6719H23.7752C23.8205 20.5358 24.0036 19.9897 24.3245 19.0337L24.8689 17.4247L25.9627 20.6719H26.7502L28.1161 16.2969H27.2606L26.3078 19.442L25.2821 16.2969H24.4265L23.4008 19.442L22.4772 16.2969H21.5877L22.9925 20.6719Z" fill="#514AE1"/>
</g>
</svg>
